<?xml version="1.0" encoding="UTF-8"?>
<!DOCTYPE svg PUBLIC "-//W3C//DTD SVG 1.1//EN" "http://www.w3.org/Graphics/SVG/1.1/DTD/svg11.dtd">
<!-- Creator: CorelDRAW 2020 (64-Bit) -->
<svg xmlns="http://www.w3.org/2000/svg" xml:space="preserve" width="8.5in" height="11in" version="1.1" style="shape-rendering:geometricPrecision; text-rendering:geometricPrecision; image-rendering:optimizeQuality; fill-rule:evenodd; clip-rule:evenodd"
viewBox="0 0 8500 11000"
 xmlns:xlink="http://www.w3.org/1999/xlink"
 xmlns:xodm="http://www.corel.com/coreldraw/odm/2003">
 <defs>
  <style type="text/css">
   <![CDATA[
    .str1 {stroke:#373435;stroke-width:6.94;stroke-miterlimit:2.61313}
    .str4 {stroke:black;stroke-width:6.94;stroke-miterlimit:2.61313}
    .str2 {stroke:#174870;stroke-width:6.94;stroke-miterlimit:2.61313}
    .str3 {stroke:#9AB7C2;stroke-width:6.94;stroke-miterlimit:2.61313}
    .str0 {stroke:#373435;stroke-width:3;stroke-miterlimit:2.61313}
    .fil1 {fill:#373435}
    .fil3 {fill:black}
    .fil5 {fill:black}
    .fil2 {fill:#174870}
    .fil4 {fill:#9AB7C2}
    .fil0 {fill:#373435;fill-rule:nonzero}
   ]]>
  </style>
 </defs>
 <g id="Layer_x0020_1">
  <metadata id="CorelCorpID_0Corel-Layer"/>
  <path class="fil0 str0" d="M744.32 6033.03c0,-175.59 62.6,-313.21 187.49,-412.6 124.88,-99.39 285.96,-148.96 483.56,-148.96 129.45,0 245.86,23.43 349.87,70.04 103.69,46.61 182.93,111.72 237.38,195.32 54.45,83.36 81.84,178.06 81.84,283.86 0,107.28 -28.69,203.46 -86.08,288.05 -57.39,84.83 -138.58,148.96 -243.57,192.36 -105.32,43.65 -218.8,65.35 -340.42,65.35 -132.06,0 -249.77,-24.17 -353.79,-72.26 -103.69,-48.09 -182.6,-113.69 -236.07,-197.05 -53.48,-83.11 -80.21,-171.16 -80.21,-264.13zm191.73 2.46c0,127.5 45.32,227.88 135.97,301.12 90.65,73.25 204.45,109.99 341.4,109.99 139.56,0 254.01,-36.99 344.33,-110.98 90,-73.99 134.99,-179.05 134.99,-315.18 0,-86.07 -19.24,-161.29 -57.71,-225.41 -38.48,-64.12 -94.89,-113.94 -168.91,-149.21 -74.34,-35.26 -157.49,-53.02 -249.77,-53.02 -131.08,0 -243.9,34.03 -338.46,102.1 -94.56,68.07 -141.84,181.51 -141.84,340.58zm1390.69 513.22l0 -1059.48 620.84 0c124.89,0 219.78,9.62 284.67,28.61 64.88,18.99 116.73,52.53 155.54,100.62 38.8,48.09 58.04,101.36 58.04,159.56 0,75.22 -32.28,138.6 -96.52,190.15 -64.24,51.54 -163.36,84.1 -297.7,98.15 49.24,17.76 86.41,35.52 111.84,52.78 54.13,37.48 105.32,84.59 153.26,141.06l242.27 288.55 -231.51 0 -185.21 -220.48c-53.8,-63.87 -98.47,-112.46 -133.36,-146.24 -35.22,-33.79 -66.52,-57.22 -94.23,-70.78 -27.39,-13.32 -55.76,-22.69 -84.45,-28.11 -20.87,-3.2 -55.11,-4.93 -103.04,-4.93l-214.56 0 0 470.55 -185.86 0zm185.86 -591.89l397.8 0c84.78,0 150.65,-6.66 198.25,-19.98 47.61,-13.07 83.8,-34.28 108.26,-63.63 24.78,-29.1 37.17,-60.67 37.17,-94.95 0,-50.06 -23.8,-91.5 -71.73,-123.8 -47.93,-32.31 -123.58,-48.34 -226.94,-48.34l-442.8 0 0 350.69zm1166.36 76.21c0,-175.59 62.6,-313.21 187.49,-412.6 124.88,-99.39 285.96,-148.96 483.56,-148.96 129.45,0 245.86,23.43 349.87,70.04 103.69,46.61 182.93,111.72 237.38,195.32 54.45,83.36 81.84,178.06 81.84,283.86 0,107.28 -28.69,203.46 -86.08,288.05 -57.39,84.83 -138.58,148.96 -243.57,192.36 -105.32,43.65 -218.8,65.35 -340.42,65.35 -132.06,0 -249.77,-24.17 -353.79,-72.26 -103.69,-48.09 -182.6,-113.69 -236.07,-197.05 -53.48,-83.11 -80.21,-171.16 -80.21,-264.13zm191.73 2.46c0,127.5 45.32,227.88 135.97,301.12 90.65,73.25 204.45,109.99 341.4,109.99 139.56,0 254.01,-36.99 344.33,-110.98 90,-73.99 134.99,-179.05 134.99,-315.18 0,-86.07 -19.24,-161.29 -57.71,-225.41 -38.48,-64.12 -94.89,-113.94 -168.91,-149.21 -74.34,-35.26 -157.49,-53.02 -249.77,-53.02 -131.08,0 -243.9,34.03 -338.46,102.1 -94.56,68.07 -141.84,181.51 -141.84,340.58zm1384.82 513.22l0 -1059.48 190.43 0 734.96 831.6 0 -831.6 178.04 0 0 1059.48 -190.42 0 -734.96 -831.6 0 831.6 -178.04 0zm1261.24 0l537.36 -1059.48 203.8 0 570.3 1059.48 -210.97 0 -162.06 -321.1 -589.86 0 -151.95 321.1 -196.62 0zm403.02 -435.04l477.37 0 -146.07 -293.72c-44.02,-89.28 -77.28,-163.02 -100.43,-221.22 -19.24,69.06 -45,136.87 -77.28,203.95l-153.58 310.99z"/>
  <path class="fil0 str0" d="M1772.17 7147.22l51.62 13.04c-10.78,42.3 -30.16,74.44 -58.15,96.63 -27.98,22.19 -62.22,33.33 -102.7,33.33 -41.84,0 -75.89,-8.51 -102.16,-25.63 -26.26,-17.02 -46.19,-41.75 -59.86,-74.08 -13.68,-32.43 -20.56,-67.11 -20.56,-104.24 0,-40.48 7.7,-75.8 23.19,-105.96 15.48,-30.16 37.49,-53.07 66.02,-68.74 28.53,-15.67 59.95,-23.46 94.19,-23.46 38.94,0 71.63,9.87 98.08,29.71 26.54,19.83 45.01,47.63 55.43,83.5l-50.53 11.95c-8.97,-28.26 -22.1,-48.91 -39.22,-61.76 -17.12,-12.95 -38.67,-19.38 -64.66,-19.38 -29.8,0 -54.79,7.15 -74.81,21.46 -20.02,14.31 -34.14,33.6 -42.2,57.69 -8.15,24.18 -12.22,49.09 -12.22,74.72 0,33.06 4.8,61.94 14.4,86.58 9.6,24.72 24.54,43.11 44.83,55.33 20.29,12.22 42.2,18.3 65.84,18.3 28.8,0 53.07,-8.33 72.99,-24.91 19.93,-16.67 33.42,-41.3 40.48,-74.08zm113.11 136.48l0 -389.06 51.62 0 0 343.42 191.27 0 0 45.65 -242.89 0zm305.48 0l0 -389.06 280.93 0 0 45.64 -229.31 0 0 119.55 214.64 0 0 45.64 -214.64 0 0 132.59 238.55 0 0 45.65 -290.17 0zm318.69 0l149.25 -389.06 56.61 0 158.39 389.06 -58.59 0 -45.01 -117.91 -163.83 0 -42.2 117.91 -54.61 0zm111.94 -159.76l132.59 0 -40.57 -107.86c-12.22,-32.78 -21.46,-59.86 -27.89,-81.24 -5.34,25.36 -12.5,50.26 -21.46,74.9l-42.66 114.2zm292.61 159.76l0 -389.06 52.89 0 204.13 305.38 0 -305.38 49.45 0 0 389.06 -52.89 0 -204.13 -305.38 0 305.38 -49.44 0zm401.65 0l0 -389.06 51.62 0 0 389.06 -51.62 0zm141.74 0l0 -389.06 52.89 0 204.13 305.38 0 -305.38 49.45 0 0 389.06 -52.89 0 -204.13 -305.38 0 305.38 -49.44 0zm574.99 -152.69l0 -45.64 164.65 0 0 144.18c-25.27,20.11 -51.35,35.32 -78.25,45.46 -26.9,10.14 -54.52,15.21 -82.78,15.21 -38.22,0 -72.9,-8.15 -104.15,-24.54 -31.16,-16.3 -54.79,-40.03 -70.64,-70.91 -15.94,-30.97 -23.91,-65.57 -23.91,-103.7 0,-37.85 7.88,-73.18 23.73,-106.05 15.85,-32.78 38.58,-57.15 68.28,-73 29.71,-15.94 63.94,-23.91 102.7,-23.91 28.07,0 53.52,4.53 76.26,13.68 22.73,9.15 40.57,21.83 53.43,38.04 12.95,16.3 22.73,37.59 29.43,63.76l-46.46 12.68c-5.89,-19.74 -13.13,-35.32 -21.73,-46.73 -8.7,-11.32 -21.01,-20.37 -37.13,-27.17 -16.03,-6.79 -33.87,-10.23 -53.52,-10.23 -23.46,0 -43.74,3.62 -60.95,10.78 -17.12,7.16 -30.88,16.57 -41.48,28.35 -10.5,11.68 -18.65,24.54 -24.45,38.49 -9.87,24.18 -14.85,50.26 -14.85,78.43 0,34.78 5.98,63.85 17.84,87.3 11.95,23.37 29.34,40.76 52.07,52.07 22.82,11.32 47,17.03 72.63,17.03 22.28,0 44.02,-4.35 65.21,-12.95 21.19,-8.69 37.22,-17.84 48.18,-27.71l0 -72.91 -114.11 0zm374.76 27.71l48.36 -4.35c2.26,19.56 7.61,35.59 16.03,48.18 8.43,12.5 21.46,22.64 39.13,30.43 17.66,7.7 37.58,11.59 59.68,11.59 19.65,0 36.95,-2.9 51.98,-8.79 15.03,-5.89 26.17,-13.94 33.51,-24.18 7.33,-10.23 11.05,-21.37 11.05,-33.33 0,-12.13 -3.53,-22.73 -10.59,-31.88 -7.06,-9.06 -18.75,-16.67 -35.05,-22.91 -10.42,-3.98 -33.51,-10.32 -69.28,-18.93 -35.77,-8.6 -60.77,-16.66 -75.08,-24.27 -18.56,-9.78 -32.33,-21.92 -41.39,-36.32 -9.15,-14.4 -13.68,-30.61 -13.68,-48.45 0,-19.74 5.62,-38.13 16.76,-55.15 11.14,-17.11 27.35,-30.07 48.81,-38.94 21.37,-8.87 45.19,-13.31 71.36,-13.31 28.8,0 54.25,4.62 76.26,13.95 22.01,9.24 38.94,22.91 50.81,41.02 11.87,18.02 18.2,38.49 19.11,61.31l-49.45 3.8c-2.63,-24.54 -11.59,-43.11 -26.9,-55.61 -15.3,-12.59 -37.94,-18.84 -67.83,-18.84 -31.16,0 -53.89,5.7 -68.11,17.12 -14.22,11.41 -21.37,25.18 -21.37,41.3 0,13.95 5.07,25.45 15.13,34.51 9.96,8.96 35.77,18.29 77.61,27.71 41.84,9.51 70.55,17.75 86.13,24.81 22.55,10.42 39.3,23.55 50.08,39.58 10.78,15.94 16.12,34.32 16.12,55.15 0,20.74 -5.89,40.12 -17.75,58.41 -11.87,18.3 -28.8,32.51 -50.99,42.66 -22.19,10.14 -47.09,15.21 -74.9,15.21 -35.14,0 -64.57,-5.16 -88.3,-15.39 -23.82,-10.24 -42.39,-25.63 -55.88,-46.28 -13.59,-20.56 -20.65,-43.83 -21.37,-69.83zm380.37 124.98l0 -389.06 280.93 0 0 45.64 -229.31 0 0 119.55 214.64 0 0 45.64 -214.64 0 0 132.59 238.55 0 0 45.65 -290.17 0zm362.44 0l0 -389.06 172.43 0c34.69,0 61.04,3.53 79.06,10.5 18.02,6.97 32.42,19.29 43.2,36.95 10.78,17.66 16.12,37.22 16.12,58.6 0,27.62 -8.96,50.89 -26.81,69.82 -17.84,18.93 -45.37,30.88 -82.69,36.04 13.67,6.52 24,13.04 31.06,19.38 15.04,13.77 29.25,31.06 42.57,51.8l67.29 105.96 -64.3 0 -51.44 -80.96c-14.94,-23.46 -27.35,-41.3 -37.04,-53.7 -9.78,-12.41 -18.48,-21.01 -26.17,-25.99 -7.61,-4.89 -15.49,-8.33 -23.46,-10.32 -5.8,-1.18 -15.31,-1.81 -28.62,-1.81l-59.59 0 0 172.8 -51.62 0zm51.62 -217.35l110.49 0c23.54,0 41.84,-2.44 55.06,-7.33 13.22,-4.8 23.27,-12.59 30.07,-23.37 6.88,-10.69 10.32,-22.28 10.32,-34.87 0,-18.39 -6.61,-33.6 -19.93,-45.46 -13.31,-11.87 -34.32,-17.75 -63.03,-17.75l-122.99 0 0 128.78zm440.78 217.35l-150.34 -389.06 55.79 0 101.07 282.74c8.06,22.64 14.94,43.83 20.38,63.67 5.98,-21.28 12.95,-42.47 20.92,-63.67l104.87 -282.74 52.53 0 -151.69 389.06 -53.52 0zm260.28 0l0 -389.06 51.62 0 0 389.06 -51.62 0zm419.41 -136.48l51.62 13.04c-10.78,42.3 -30.16,74.44 -58.15,96.63 -27.98,22.19 -62.22,33.33 -102.7,33.33 -41.84,0 -75.89,-8.51 -102.16,-25.63 -26.26,-17.02 -46.19,-41.75 -59.86,-74.08 -13.68,-32.43 -20.56,-67.11 -20.56,-104.24 0,-40.48 7.7,-75.8 23.19,-105.96 15.48,-30.16 37.49,-53.07 66.02,-68.74 28.53,-15.67 59.95,-23.46 94.19,-23.46 38.94,0 71.63,9.87 98.08,29.71 26.54,19.83 45.01,47.63 55.43,83.5l-50.53 11.95c-8.97,-28.26 -22.1,-48.91 -39.22,-61.76 -17.12,-12.95 -38.67,-19.38 -64.66,-19.38 -29.8,0 -54.79,7.15 -74.81,21.46 -20.02,14.31 -34.14,33.6 -42.2,57.69 -8.15,24.18 -12.22,49.09 -12.22,74.72 0,33.06 4.8,61.94 14.4,86.58 9.6,24.72 24.54,43.11 44.83,55.33 20.29,12.22 42.2,18.3 65.84,18.3 28.8,0 53.07,-8.33 72.99,-24.91 19.93,-16.67 33.42,-41.3 40.48,-74.08zm116.37 136.48l0 -389.06 280.93 0 0 45.64 -229.31 0 0 119.55 214.64 0 0 45.64 -214.64 0 0 132.59 238.55 0 0 45.65 -290.17 0zm344.5 -124.98l48.36 -4.35c2.26,19.56 7.61,35.59 16.03,48.18 8.43,12.5 21.46,22.64 39.13,30.43 17.66,7.7 37.58,11.59 59.68,11.59 19.65,0 36.95,-2.9 51.98,-8.79 15.03,-5.89 26.17,-13.94 33.51,-24.18 7.33,-10.23 11.05,-21.37 11.05,-33.33 0,-12.13 -3.53,-22.73 -10.59,-31.88 -7.06,-9.06 -18.75,-16.67 -35.05,-22.91 -10.42,-3.98 -33.51,-10.32 -69.28,-18.93 -35.77,-8.6 -60.77,-16.66 -75.08,-24.27 -18.56,-9.78 -32.33,-21.92 -41.39,-36.32 -9.15,-14.4 -13.68,-30.61 -13.68,-48.45 0,-19.74 5.62,-38.13 16.76,-55.15 11.14,-17.11 27.35,-30.07 48.81,-38.94 21.37,-8.87 45.19,-13.31 71.36,-13.31 28.8,0 54.25,4.62 76.26,13.95 22.01,9.24 38.94,22.91 50.81,41.02 11.87,18.02 18.2,38.49 19.11,61.31l-49.45 3.8c-2.63,-24.54 -11.59,-43.11 -26.9,-55.61 -15.3,-12.59 -37.94,-18.84 -67.83,-18.84 -31.16,0 -53.89,5.7 -68.11,17.12 -14.22,11.41 -21.37,25.18 -21.37,41.3 0,13.95 5.07,25.45 15.13,34.51 9.96,8.96 35.77,18.29 77.61,27.71 41.84,9.51 70.55,17.75 86.13,24.81 22.55,10.42 39.3,23.55 50.08,39.58 10.78,15.94 16.12,34.32 16.12,55.15 0,20.74 -5.89,40.12 -17.75,58.41 -11.87,18.3 -28.8,32.51 -50.99,42.66 -22.19,10.14 -47.09,15.21 -74.9,15.21 -35.14,0 -64.57,-5.16 -88.3,-15.39 -23.82,-10.24 -42.39,-25.63 -55.88,-46.28 -13.59,-20.56 -20.65,-43.83 -21.37,-69.83z"/>
  <path class="fil1 str1" d="M1572.56 4316.06l19.03 -1531.58 161.72 -4.76 9.52 -489.92 233.07 -4.76 9.51 -109.4 300.8 -1.16 36.91 -343.68 28.54 347.22 55.59 1.13 -1.06 98.57 64.16 -0.33c-3.17,650.84 -6.12,1304.58 -9.29,1955.42 -310.14,5.8 -610.26,41.67 -908.48,83.24z"/>
  <path class="fil2 str2" d="M2554.77 4282.76l16.65 -1155.82 159.34 -9.51 4.76 -1155.82 53.22 -1.97 15.74 -55.11 118.91 -4.76 19.03 -54.7 275.87 4.76 45.19 -294.9 33.3 335.33 114.16 7.13 7.13 57.08 59.46 2.38 -19.03 2268.83 665.98 6.69c0.79,43.9 -0.87,88.24 -0.07,132.14 -1735.13,-34.43 -2708.65,90.44 -3472.22,259.23 436.03,-181.6 1022.56,-311.6 1902.58,-340.98z"/>
  <polygon class="fil1 str1" points="4189.33,4163.56 3553.64,4163.56 3553.85,3968.21 5064.59,3968.33 5064.48,4163.45 4369.89,4164.31 4371.44,5171.93 4190.11,5172.21 "/>
  <path class="fil2 str2" d="M4438.93 4364.82l0 -132.59 684.67 -4.17 8.28 -2878.24 99.29 0 9.51 -43.4 68.97 -11.3 45.19 -312.74 36.27 305.61 64.81 7.13 35.67 57.67 51.13 -61.83 52.32 1.19 40.43 -307.39 46.97 309.17 51.73 7.73 20.22 54.7 30.92 -0.6 7.73 98.7 60.05 14.87 2.98 413.22 161.72 9.51c2.38,790.37 4.67,1550.86 7.04,2341.22 723.54,77.77 1387.32,240.51 1895.54,393.74 -1199.2,-243.87 -2383.66,-319.65 -3481.43,-262.2z"/>
  <path class="fil1 str1" d="M6090.89 4191.37c355.17,21.54 638.39,80.36 899.59,136l-23.78 -1778.92 -149.83 -2.38 -49.94 -732.5 -23.78 -16.65 -49.94 -566.02 -61.83 582.67 -156.96 -11.89 -71.35 411.43 -192.63 11.89 -119.53 1966.36z"/>
  <path class="fil3" d="M3766.64 2464.83c4.22,1.18 16.71,1.5 22.44,2.13 33.19,3.65 67.38,12.83 95.2,30.37 51.5,32.46 74.22,83.79 81.51,144.17 0.53,4.39 1.35,21.02 2.22,23.31 0.86,-2.28 1.65,-18.51 2.16,-22.82 4.81,-40.29 16.4,-77.47 41.31,-109.09 2.06,-2.61 3.98,-4.44 5.9,-6.81 8.09,-9.96 23.15,-21.65 34,-28.52 21.5,-13.62 47.71,-22.59 73.41,-27.33 7.08,-1.31 14.35,-2.39 21.62,-3.2 6.51,-0.73 17.56,-0.9 22.96,-2.19 -29.82,-1.28 -58,-6.3 -83.61,-15.59 -24.52,-8.9 -43.13,-20.92 -61.27,-37.71 -31.77,-29.41 -48.46,-77.31 -53.87,-119.75l-2.61 -22.72c-0.07,0.17 -0.15,0.23 -0.17,0.52 -0.03,0.29 -0.13,0.37 -0.17,0.52 -0.17,0.76 -0.21,0.84 -0.32,1.67 -0.1,0.79 -0.13,1.95 -0.19,2.79 -0.75,11.54 -2.94,27.08 -5.2,38.06 -7.45,36.11 -20.12,65.29 -44,92.01 -17.63,19.72 -41.43,35.07 -67.28,44.46 -25.85,9.39 -53.93,14.44 -84.04,15.74z"/>
  <polygon class="fil4 str3" points="3555.11,2350.34 3555.11,2526.93 5062.94,878.81 4871.06,878.81 "/>
  <polygon class="fil4 str3" points="3555.11,2695.48 3555.11,3233.26 5062.94,1568.07 5062.94,1012.59 "/>
  <polygon class="fil4 str3" points="3754.47,3892.33 3852.86,3892.33 5062.94,2484.11 5062.94,2341.42 "/>
  <polygon class="fil4 str3" points="4242.46,3892.33 3956.17,3892.33 5062.94,2599.47 5062.94,2872 "/>
  <path class="fil5 str4" d="M3880.19 3478.66c6.91,1.94 27.37,2.47 36.75,3.5 54.37,5.98 110.38,21.02 155.96,49.75 84.37,53.19 121.58,137.27 133.52,236.17 0.87,7.19 2.22,34.43 3.63,38.19 1.41,-3.74 2.69,-30.31 3.54,-37.38 7.89,-66.01 26.87,-126.91 67.69,-178.72 3.36,-4.27 6.51,-7.28 9.67,-11.16 13.26,-16.31 37.93,-35.47 55.7,-46.72 35.22,-22.31 78.16,-37 120.26,-44.78 11.59,-2.14 23.51,-3.93 35.41,-5.26 10.66,-1.19 28.77,-1.47 37.62,-3.59 -48.86,-2.1 -95.01,-10.31 -136.98,-25.54 -40.17,-14.57 -70.65,-34.28 -100.37,-61.78 -52.05,-48.19 -79.39,-126.65 -88.26,-196.17l-4.28 -37.21c-0.12,0.27 -0.24,0.37 -0.29,0.84 -0.04,0.47 -0.21,0.61 -0.27,0.86 -0.28,1.25 -0.35,1.37 -0.53,2.74 -0.17,1.3 -0.22,3.2 -0.3,4.56 -1.23,18.91 -4.82,44.36 -8.53,62.35 -12.2,59.15 -32.95,106.96 -72.07,150.72 -28.88,32.31 -67.87,57.45 -110.21,72.83 -42.34,15.39 -88.35,23.67 -137.67,25.79z"/>
  <path class="fil5 str4" d="M4530.75 2866.04c37.82,2.81 79.21,15.11 104.49,41.5 37.72,39.38 32.51,79.74 41.55,102.57 6.57,-74.04 39.29,-121.83 107.09,-138.48l29.68 -6.61c-12.99,-5.43 -37.72,-7.53 -54.81,-14.59 -49.91,-20.62 -77.27,-66.58 -81.35,-125.49 -0.34,0.5 -0.78,0.68 -0.9,1.57l-3.37 11.76c-8.02,53.8 -32.66,94.12 -84.65,114.2 -18.77,7.25 -44.21,8.26 -57.74,13.56z"/>
  <path class="fil5 str4" d="M3766.64 2464.83c4.22,1.18 16.71,1.5 22.44,2.13 33.19,3.65 67.38,12.83 95.2,30.37 51.5,32.46 74.22,83.79 81.51,144.17 0.53,4.39 1.35,21.02 2.22,23.31 0.86,-2.28 1.65,-18.51 2.16,-22.82 4.81,-40.29 16.4,-77.47 41.31,-109.09 2.06,-2.61 3.98,-4.44 5.9,-6.81 8.09,-9.96 23.15,-21.65 34,-28.52 21.5,-13.62 47.71,-22.59 73.41,-27.33 7.08,-1.31 14.35,-2.39 21.62,-3.2 6.51,-0.73 17.56,-0.9 22.96,-2.19 -29.82,-1.28 -58,-6.3 -83.61,-15.59 -24.52,-8.9 -43.13,-20.92 -61.27,-37.71 -31.77,-29.41 -48.46,-77.31 -53.87,-119.75l-2.61 -22.72c-0.07,0.17 -0.15,0.23 -0.17,0.52 -0.03,0.29 -0.13,0.37 -0.17,0.52 -0.17,0.76 -0.21,0.84 -0.32,1.67 -0.1,0.79 -0.13,1.95 -0.19,2.79 -0.75,11.54 -2.94,27.08 -5.2,38.06 -7.45,36.11 -20.12,65.29 -44,92.01 -17.63,19.72 -41.43,35.07 -67.28,44.46 -25.85,9.39 -53.93,14.44 -84.04,15.74z"/>
  <path class="fil5 str4" d="M4443.64 2021.14c3.35,0.94 13.28,1.2 17.83,1.7 26.37,2.9 53.54,10.19 75.64,24.13 40.92,25.79 58.97,66.57 64.76,114.54 0.42,3.48 1.07,16.7 1.76,18.52 0.68,-1.81 1.3,-14.7 1.71,-18.13 3.82,-32.01 13.03,-61.55 32.83,-86.68 1.63,-2.07 3.16,-3.53 4.69,-5.41 6.43,-7.91 18.39,-17.2 27.02,-22.67 17.08,-10.82 37.91,-17.94 58.33,-21.71 5.63,-1.04 11.41,-1.91 17.18,-2.55 5.17,-0.57 13.95,-0.71 18.25,-1.74 -23.7,-1.02 -46.08,-5 -66.44,-12.39 -19.48,-7.07 -34.27,-16.62 -48.68,-29.96 -25.24,-23.37 -38.5,-61.43 -42.8,-95.14l-2.07 -18.05c-0.06,0.13 -0.12,0.19 -0.14,0.41 -0.02,0.23 -0.1,0.3 -0.13,0.42 -0.14,0.61 -0.17,0.67 -0.26,1.33 -0.08,0.63 -0.1,1.55 -0.15,2.21 -0.6,9.17 -2.34,21.52 -4.14,30.24 -5.92,28.69 -15.98,51.87 -34.96,73.1 -14.01,15.67 -32.92,27.86 -53.46,35.32 -20.54,7.46 -42.85,11.48 -66.77,12.51z"/>
 </g>
</svg>
